<svg id="Collaboration_" data-name="Collaboration " xmlns="http://www.w3.org/2000/svg" width="112.751" height="72.668" viewBox="0 0 112.751 72.668">
  <defs>
    <style>
      .cls-1 {
        fill: #da9c04;
      }
    </style>
  </defs>
  <g id="Group_177" data-name="Group 177" transform="translate(0 0)">
    <g id="Group_176" data-name="Group 176" transform="translate(0)">
      <path id="Path_344" data-name="Path 344" class="cls-1" d="M112.57,54.425,101.651,24.773a2.844,2.844,0,0,0-2.67-1.868,2.8,2.8,0,0,0-.58.067l-10.72,2.315-19.089-5.38a15.777,15.777,0,0,0-4.235-.671,10.434,10.434,0,0,0-5.486,1.553l-3.065,1.829L52.689,20.88a10.39,10.39,0,0,0-5.183-1.395,15.674,15.674,0,0,0-4.552.8L24.116,26.208l-9.774-2.421a2.929,2.929,0,0,0-.684-.079A2.813,2.813,0,0,0,11,25.576L.175,55.634a2.81,2.81,0,0,0,1.289,3.433l8.958,5a8.193,8.193,0,0,0,3.8,9.735A8.286,8.286,0,0,0,18.2,74.84h.131a8.18,8.18,0,0,0,8.117,7.223,8.281,8.281,0,0,0,2.934-.54,8.189,8.189,0,0,0,3.262,3.328,8.336,8.336,0,0,0,4,1.026,7.983,7.983,0,0,0,2.223-.3,8.48,8.48,0,0,0,1.17-.434A7.95,7.95,0,0,0,43.1,88.127a8.174,8.174,0,0,0,4.012,1.04H47.2a8.231,8.231,0,0,0,5.012-1.789l6.275,3.5A8.263,8.263,0,0,0,62.45,91.9h.158a8.231,8.231,0,0,0,7.959-6.789,8.112,8.112,0,0,0,2.394.355,8.387,8.387,0,0,0,2.275-.316,8.184,8.184,0,0,0,4.92-3.893,8.075,8.075,0,0,0,1.026-3.433h.132a8.2,8.2,0,0,0,7.169-4.21,8.285,8.285,0,0,0,.947-2.762,7.688,7.688,0,0,0,1.829.211,8.191,8.191,0,0,0,8.2-8.512l11.5-4.5A2.82,2.82,0,0,0,112.57,54.425ZM97.284,57.319a7.878,7.878,0,0,0-2.04-1.618c-.75-.422-3.6-2.066-8.905-5.171l-6.947-4.065c-6.537-3.828-15.286-8.945-16.351-9.564-.408-.249-.789-.474-1.118-.671-.289-.158-.539-.3-.736-.434a3.79,3.79,0,0,0-2.092-.776H59a2.878,2.878,0,0,0-.921.171,87.478,87.478,0,0,0-8.747,3.933,3.422,3.422,0,0,1-1.513.369,2.476,2.476,0,0,1-2.184-1.171,2.62,2.62,0,0,1-.289-1.986,2.518,2.518,0,0,1,1.17-1.566l15.26-9.129a4.768,4.768,0,0,1,2.565-.736,10.053,10.053,0,0,1,2.709.474l19.76,5.551a3.112,3.112,0,0,0,.776.106,3.172,3.172,0,0,0,.618-.067l8.972-1.934L106.3,53.78ZM23.379,62.554l-2.96,5.327a2.55,2.55,0,0,1-2.17,1.29,2.641,2.641,0,0,1-1.289-.316,2.585,2.585,0,0,1-1.184-1.539,2.464,2.464,0,0,1,.21-1.908l2.973-5.315a2.527,2.527,0,0,1,3.433-.987A2.533,2.533,0,0,1,23.379,62.554Zm6.091,11.13-.789,1.407a2.527,2.527,0,0,1-2.21,1.3,2.333,2.333,0,0,1-1.223-.329,2.473,2.473,0,0,1-1.21-1.512,2.5,2.5,0,0,1,.223-1.921l1.1-2,2.973-5.315.079-.144v-.014l2.539-4.538a2.517,2.517,0,0,1,1.512-1.2,2.458,2.458,0,0,1,.7-.092,2.535,2.535,0,0,1,1.236.316,2.471,2.471,0,0,1,1.2,1.513,2.541,2.541,0,0,1-.223,1.934L34.588,64.5Zm14.5-3.96-1.093,1.947-2.946,5.314L38.85,78.919a2.535,2.535,0,0,1-1.539,1.2,2.459,2.459,0,0,1-.684.092,2.525,2.525,0,0,1-2.289-3.618l.092-.144,4.919-8.853h.014l.2-.343a2.494,2.494,0,0,1,2.2-1.3,2.553,2.553,0,0,1,1.237.329A2.444,2.444,0,0,1,44.2,67.8,2.579,2.579,0,0,1,43.967,69.724Zm8.3,7.169-2.961,5.315a2.513,2.513,0,0,1-3.446.973,2.508,2.508,0,0,1-1.2-1.526,2.551,2.551,0,0,1,.223-1.934l2.96-5.3a2.533,2.533,0,0,1,4.421,2.473ZM64.7,84.944a2.529,2.529,0,0,1-3.459.973L55.5,82.734l1.723-3.092a8.142,8.142,0,0,0,.618-1.421l5.8,3.222.091.067A2.516,2.516,0,0,1,64.7,84.944ZM93.455,64.093a2.477,2.477,0,0,1-2.2,1.316,2.556,2.556,0,0,1-1.237-.329l-4.7-2.617-.144-.079h-.014L67.83,52.714a2.91,2.91,0,0,0-1.369-.355,2.833,2.833,0,0,0-1.381,5.315l17.483,9.734a2.507,2.507,0,0,1,1.289,2.172,2.575,2.575,0,0,1-.328,1.289,2.525,2.525,0,0,1-3.447.961L76.985,70.1l-.144-.079h-.014L61.647,61.555a2.943,2.943,0,0,0-1.381-.355,2.839,2.839,0,0,0-1.381,5.314l15.352,8.551a2.524,2.524,0,0,1-.566,4.643,2.419,2.419,0,0,1-.684.092,2.454,2.454,0,0,1-1.223-.316l-5.274-2.947-9.538-5.3a8.1,8.1,0,0,0-2.907-2.75,8.442,8.442,0,0,0-4.013-1.04H49.9a7.405,7.405,0,0,0-.263-1.2,8.154,8.154,0,0,0-7.853-5.959c-.185,0-.369,0-.566.012-.039-.237-.1-.474-.158-.671a8.2,8.2,0,0,0-13.654-3.617,8.071,8.071,0,0,0-2.251-1.855,8.183,8.183,0,0,0-3.946-1.04,7.937,7.937,0,0,0-2.289.329A8.027,8.027,0,0,0,14,57.331l-.947,1.71L6.317,55.293,15.46,29.9l8.064,2a2.9,2.9,0,0,0,.683.079,3,3,0,0,0,.829-.118L44.651,25.72a9.443,9.443,0,0,1,2.855-.566,4.829,4.829,0,0,1,2.433.671l.264.145-6.59,3.92A8.294,8.294,0,0,0,40.757,41.23a8.134,8.134,0,0,0,7.05,3.946,9.126,9.126,0,0,0,4.118-1c2.079-1.078,4.854-2.368,6.88-3.2,2.973,1.736,22.311,13.063,24.679,14.445,5.223,3.051,8.169,4.761,9.011,5.235a2.5,2.5,0,0,1,1.2,1.513A2.439,2.439,0,0,1,93.455,64.093Z" transform="translate(0 -19.235)"/>
    </g>
  </g>
</svg>
