<svg xmlns="http://www.w3.org/2000/svg" width="140" height="140" viewBox="0 0 140 140">
  <defs>
    <style>
      .cls-1 {
        fill: #fff5dc;
      }

      .cls-2 {
        fill: #da9c04;
      }
    </style>
  </defs>
  <g id="Company_Profile_Icon_" data-name="Company Profile Icon " transform="translate(-895 -1252)">
    <rect id="Rectangle_879" data-name="Rectangle 879" class="cls-1" width="140" height="140" rx="15" transform="translate(895 1252)"/>
    <path id="building_1_" data-name="building (1)" class="cls-2" d="M71.371,55.5h-1.6V51.23A2.135,2.135,0,0,0,67.635,49.1H64.967V24.548h3.469a2.135,2.135,0,0,0,2.071-1.617c2.019-8.074,1.963-7.667,1.923-8.162a2.133,2.133,0,0,0-1.252-1.775L42.626.186a2.135,2.135,0,0,0-1.747,0C10.1,13.994,12.017,13.015,11.543,13.6a2.128,2.128,0,0,0-.37.681c-.259.8-.183.611,1.826,8.648a2.135,2.135,0,0,0,2.071,1.617h3.469V49.1H15.87a2.135,2.135,0,0,0-2.135,2.135V55.5h-1.6A2.135,2.135,0,0,0,10,57.634v6.4a2.135,2.135,0,0,0,2.135,2.135H71.371a2.135,2.135,0,0,0,2.135-2.135v-6.4A2.135,2.135,0,0,0,71.371,55.5ZM60.7,49.1H57.5V24.548h3.2Zm-13.075,0V24.548h5.6V49.1Zm-7.471,0V24.548h3.2V49.1Zm-9.873,0V24.548h5.6V49.1ZM41.753,4.474l18.577,8.333H23.176Zm-25.817,12.6H67.569l-.8,3.2H16.736Zm6.872,7.471h3.2V49.1h-3.2ZM18,53.365H65.5V55.5H18ZM69.236,61.9H14.269V59.769H69.236Z" transform="translate(923 1289.002)"/>
  </g>
</svg>
