<svg id="Customer_Centric_" data-name="Customer Centric " xmlns="http://www.w3.org/2000/svg" width="83.878" height="112.751" viewBox="0 0 83.878 112.751">
  <defs>
    <style>
      .cls-1 {
        fill: #da9c04;
      }
    </style>
  </defs>
  <g id="Group_173" data-name="Group 173">
    <g id="Group_172" data-name="Group 172">
      <path id="Path_343" data-name="Path 343" class="cls-1" d="M-47.415,80.66l-10.542-3.146-.149-.045-.127-.092-4.413-3.318-.334-.254V69.669l.45-.242a22.222,22.222,0,0,0,5.518-4.182,23.824,23.824,0,0,0,6.314-13.8l.058-.554.53-.173a7.411,7.411,0,0,0,5.082-6.568l.011-.092.023-.08c3.826-13.423,2.87-24.484-2.765-32.008C-52.4,5.389-62.025,1.46-73.534,1.46A45.166,45.166,0,0,0-86.761,3.407c-4.92,1.671-8.2,4.389-9.76,8.065l-.138.311-.3.139c-9.447,4.366-11.787,15.45-6.763,32.064l.023.092.011.092a7.39,7.39,0,0,0,5.07,6.544l.519.173.069.554a23.819,23.819,0,0,0,6.314,13.8A21.69,21.69,0,0,0-86.2,69.426l.461.242V73.8l-.345.254-4.424,3.318-.127.092-.138.045-10.542,3.146c-10.785,3.2-14.99,8.676-14.99,19.506v11.4a2.649,2.649,0,0,0,2.638,2.65h81.24V100.166C-32.425,89.336-36.631,83.874-47.415,80.66ZM-93.962,107.9l.207,1.037h-17.271v-8.769c0-8.514,2.616-11.89,11.222-14.448l4.839-1.44,1.417-.415-.334,1.44A53.586,53.586,0,0,0-93.962,107.9Zm8.226,1.037h-2.592l-.161-.669c-2.857-12.432-.554-21.787,1.082-26.257l1.671-4.6Zm37.526-75.7c-.091.956-.241,1.947-.369,2.788l-.161,1.014-.967-.334-.092-.024-.15-.045-.587-.207V33.053c0-.2,0-.369-.011-.554l-.15-2.2,1.6,1.521a5.977,5.977,0,0,1,.737.819l.184.265ZM-91.669,13.558a6.65,6.65,0,0,1,.944-1.579l.035-.046.035-.035a15.632,15.632,0,0,1,3.237-2.512l.1-.069c4.413-2.2,10.531-2.535,13.78-2.535,10.1,0,17.34,2.8,21.5,8.308l.046.058.034.069.346.669c.254.506.472.956.68,1.347a30.342,30.342,0,0,1,2.742,7.04l.552,1.9-1.774-.876a16.826,16.826,0,0,0-6.3-1.8l-.184-.011-.162-.092c-3.825-2-9.067-2.292-14.159-2.292-1.13,0-2.258.023-3.4.035-1.071.011-2.155.023-3.215.023-3.548,0-7.511-.139-9.885-1.164A9.3,9.3,0,0,1-91.7,14.157l-.092-.311ZM-98.79,36.636a1.485,1.485,0,0,0-.288.115l-.991.437-.207-1.06c-1.74-8.734-.622-14.794,3.318-18.031l.819-.669.495.934a15.571,15.571,0,0,0,1.912,2.822l.576.68-.691.565c-2.892,2.3-4.354,5.877-4.354,10.623v3.376Zm5.877,11.821a2.645,2.645,0,0,0-2.638-2.638h-.715a2.164,2.164,0,0,1-2.166-2.166,2.184,2.184,0,0,1,2.166-2.19h.715a2.645,2.645,0,0,0,2.638-2.638V33.053c0-4.333,1.371-6.579,4.724-7.766l.276-.091.276.091c3.111,1.015,6.983,1.152,10.715,1.152,1.084,0,2.178-.011,3.3-.023h.069c1.13-.012,2.258-.024,3.388-.024,6.175,0,10.75.45,12.962,2.627a5.379,5.379,0,0,1,1.394,4.033v5.772a2.645,2.645,0,0,0,2.638,2.638h.7a2.2,2.2,0,0,1,2.19,2.143,2.193,2.193,0,0,1-2.19,2.212h-.7a2.645,2.645,0,0,0-2.638,2.638c-.046,12.719-9.644,18.5-18.55,18.5S-92.879,61.176-92.914,48.457Zm24.645,60.477H-80.447V92.3l1.071.276a19.861,19.861,0,0,0,5.012.634,19.732,19.732,0,0,0,5.012-.634l1.084-.276Zm0-22.307-.542.22a14.811,14.811,0,0,1-5.553,1.082,14.991,14.991,0,0,1-5.553-1.082l-.53-.22V83.552l1.071.289a20.442,20.442,0,0,0,5.012.634,20.3,20.3,0,0,0,5.012-.634l1.084-.289Zm0-8.721-.542.219a14.836,14.836,0,0,1-5.553,1.06,14.8,14.8,0,0,1-5.553-1.071l-.53-.219V71.6l1.025.207a26.62,26.62,0,0,0,5.058.472,27.013,27.013,0,0,0,5.069-.472l1.026-.2Zm8.03,30.348-.15.68h-2.592V77.411l1.671,4.6C-59.685,86.479-57.381,95.811-60.239,108.255Zm22.537.68h-17.26l.207-1.037a53.3,53.3,0,0,0-.1-22.594l-.334-1.44,1.417.415,4.862,1.44c8.584,2.558,11.211,5.934,11.211,14.448Z" transform="translate(116.303 -1.46)"/>
    </g>
  </g>
</svg>
