<svg id="Innovation_" data-name="Innovation " xmlns="http://www.w3.org/2000/svg" width="112.755" height="112.755" viewBox="0 0 112.755 112.755">
  <defs>
    <style>
      .cls-1 {
        fill: #da9c04;
      }
    </style>
  </defs>
  <path id="Path_337" data-name="Path 337" class="cls-1" d="M-591.505,12.53A39.314,39.314,0,0,0-619.384,1.025h-.356a39.755,39.755,0,0,0-39.326,39.51,39.887,39.887,0,0,0,4.314,18.133,40.014,40.014,0,0,0,11.621,13.76c5.293,3.946,7.5,6.455,7.5,11.77v16.189h6.7V113.78h19V100.387h6.708V84.2c0-5.339,2.186-7.813,7.4-11.689a40.061,40.061,0,0,0,11.666-13.738,39.67,39.67,0,0,0,4.372-18.11A39.367,39.367,0,0,0-591.505,12.53Zm-24.035,95.646h-7.778v-7.789h7.778Zm6.7-13.393h-21.183V87.317h21.183ZM-623.318,37.3a3.9,3.9,0,0,1,3.889-3.889,3.891,3.891,0,0,1,3.889,3.889,3.9,3.9,0,0,1-3.889,3.912A3.912,3.912,0,0,1-623.318,37.3ZM-599.18,68c-4.326,3.234-8.306,6.639-9.376,12.771l-.161.944h-7.9v-35.3l.713-.288a9.574,9.574,0,0,0,5.971-8.825,9.5,9.5,0,0,0-9.491-9.491,9.5,9.5,0,0,0-9.5,9.491,9.573,9.573,0,0,0,5.983,8.825l.725.288v35.3h-7.916l-.161-.955c-1.046-6.075-5.085-9.526-9.48-12.818a33.746,33.746,0,0,1-13.68-27.383,34.149,34.149,0,0,1,33.78-33.93h.265A33.78,33.78,0,0,1-595.464,16.5a33.77,33.77,0,0,1,10.056,24.161A33.746,33.746,0,0,1-599.18,68Z" transform="translate(675.819 -1.025)"/>
  <rect id="Rectangle_873" data-name="Rectangle 873" class="cls-1" width="8.94" height="5.615" transform="translate(103.815 36.829)"/>
  <rect id="Rectangle_874" data-name="Rectangle 874" class="cls-1" width="8.963" height="5.615" transform="translate(0 36.829)"/>
  <path id="Path_338" data-name="Path 338" class="cls-1" d="M-573.561,6.064l-8.7,8.7-3.958-3.969,8.687-8.687Z" transform="translate(685.108 -0.887)"/>
  <rect id="Rectangle_875" data-name="Rectangle 875" class="cls-1" width="5.601" height="12.305" transform="translate(1.214 5.166) rotate(-45)"/>
  <rect id="Rectangle_876" data-name="Rectangle 876" class="cls-1" width="5.601" height="12.297" transform="matrix(0.708, -0.706, 0.706, 0.708, 98.885, 69.355)"/>
  <path id="Path_339" data-name="Path 339" class="cls-1" d="M-660.2,62.986l-8.687,8.71-3.958-3.969,8.687-8.71Z" transform="translate(674.062 6.37)"/>
</svg>
