<svg xmlns="http://www.w3.org/2000/svg" width="140" height="140" viewBox="0 0 140 140">
  <defs>
    <style>
      .cls-1 {
        fill: #fff5dc;
      }

      .cls-2 {
        fill: #da9c04;
      }
    </style>
  </defs>
  <g id="Group_180" data-name="Group 180" transform="translate(-150 -1792)">
    <rect id="Rectangle_879" data-name="Rectangle 879" class="cls-1" width="140" height="140" rx="15" transform="translate(150 1792)"/>
    <g id="Group_169" data-name="Group 169" transform="translate(181 1823)">
      <path id="Path_332" data-name="Path 332" class="cls-2" d="M1102.489,57.2a8.784,8.784,0,1,1-4.617-7.732l-3.144,3.135a4.438,4.438,0,0,0-1.013-.115,4.712,4.712,0,1,0,4.712,4.712,4.464,4.464,0,0,0-.115-1.022l3.125-3.125A8.672,8.672,0,0,1,1102.489,57.2Z" transform="translate(-1061.315 -11.318)"/>
      <path id="Path_333" data-name="Path 333" class="cls-2" d="M1141.352,11.492,1131.23,21.614a1.19,1.19,0,0,1-.841.344h-8.133a1.21,1.21,0,0,1-.3.5l-.162.163-25.136,25.135a1.188,1.188,0,0,1-1.692,0,1.2,1.2,0,0,1,0-1.682l2.227-2.227.507-.507.487-.487,2.934-2.934.478-.468.468-.478,17.471-17.461.736-.736a1.117,1.117,0,0,1,.487-.3V12.334a1.221,1.221,0,0,1,.354-.842L1131.24,1.371a1.192,1.192,0,0,1,.841-.344,1.225,1.225,0,0,1,.459.086,1.209,1.209,0,0,1,.736,1.1V9.457h7.235a1.187,1.187,0,0,1,.841,2.035Z" transform="translate(-1063.42 -1.027)"/>
      <path id="Path_334" data-name="Path 334" class="cls-2" d="M1110.93,51.96c-.019-.162-.048-.325-.067-.487-.057-.488-.134-.975-.22-1.453-.038-.191-.077-.363-.114-.545-.106-.449-.22-.889-.344-1.329-.057-.2-.114-.391-.182-.593-.048-.143-.086-.287-.134-.43l-.019.019a20.362,20.362,0,0,0-3.231-5.878l-2.885,2.886a16.6,16.6,0,0,1,2.838,6.261l-.009.009c.1.468.182.965.249,1.452.01.106.038.2.048.306a15.447,15.447,0,0,1,.085,1.644c0,.038.01.077.01.1,0,.048-.01.086-.01.134a15.021,15.021,0,0,1-.085,1.615c-.02.163-.048.325-.077.5-.057.42-.115.831-.2,1.233a16.591,16.591,0,0,1-12.626,12.664l-.01-.009a13.446,13.446,0,0,1-1.529.258c-.077.01-.143.029-.21.038-.583.057-1.166.1-1.768.1-.3,0-.593-.028-.889-.048a16.508,16.508,0,0,1,.889-32.992c.593,0,1.175.038,1.749.1.134.01.258.038.391.058.46.067.918.134,1.348.229a16.493,16.493,0,0,1,6.25,2.81l2.9-2.9a20.551,20.551,0,0,0-5.849-3.193l.019-.019c-.134-.048-.268-.077-.4-.124-.21-.067-.43-.134-.65-.2-.411-.115-.831-.229-1.252-.325-.2-.038-.4-.086-.6-.124-.468-.086-.927-.163-1.4-.211-.182-.028-.363-.057-.544-.076-.64-.058-1.3-.1-1.96-.1a20.622,20.622,0,0,0-20.6,20.586v.009a20.607,20.607,0,0,0,18.226,20.434,19.374,19.374,0,0,0,2.37.153c.659,0,1.319-.038,1.969-.1.171-.02.344-.048.525-.067.468-.057.946-.134,1.405-.219.2-.038.391-.086.583-.124.43-.1.859-.211,1.29-.334.2-.058.411-.124.611-.192.143-.038.286-.076.42-.124l-.019-.02a20.691,20.691,0,0,0,12.625-12.625l.019.02c.048-.143.086-.3.134-.449.067-.182.125-.373.172-.554.134-.449.248-.9.354-1.357.038-.172.076-.353.114-.525.086-.488.163-.975.22-1.472.019-.163.048-.315.057-.478a19.117,19.117,0,0,0,.1-1.969v-.009C1111.025,53.27,1110.988,52.61,1110.93,51.96Z" transform="translate(-1058.039 -8.044)"/>
      <path id="Path_335" data-name="Path 335" class="cls-2" d="M1119.556,50.655a32.516,32.516,0,0,0-1.262-8.917h.02c-.058-.172-.115-.334-.163-.507-.115-.363-.229-.726-.354-1.09-.1-.3-.21-.6-.325-.908-.124-.325-.248-.65-.382-.975s-.277-.64-.42-.956c-.134-.3-.268-.582-.411-.87-.163-.344-.344-.678-.516-1.022-.086-.153-.163-.315-.249-.468l-.009.009a32.287,32.287,0,0,0-3.727-5.371l-2.9,2.9a28.4,28.4,0,0,1,3.87,6c.067.162.143.315.211.478.133.287.258.574.382.86s.239.593.353.9c.058.153.115.315.172.468a28.6,28.6,0,0,1,1.635,9.471,28.309,28.309,0,0,1-1.635,9.481c-.067.172-.124.334-.182.5-.114.287-.22.573-.344.86-.077.182-.163.373-.239.554-.124.277-.24.545-.363.813-.086.163-.172.325-.249.478a26.563,26.563,0,0,1-1.74,2.991c-.037.067-.085.134-.124.2q-.344.5-.717,1a1.015,1.015,0,0,0-.077.1,28.539,28.539,0,0,1-9.108,7.885l-.077.048c-.316.172-.63.325-.946.488-.125.057-.249.124-.373.182-.22.1-.449.2-.679.305s-.449.2-.679.3c-.134.057-.258.1-.391.153-.335.134-.66.258-1,.373a.738.738,0,0,1-.077.029,28.528,28.528,0,0,1-17.347.42c-.019-.009-.038-.009-.057-.019-.354-.1-.7-.211-1.042-.335-.125-.038-.248-.076-.363-.124-.248-.086-.488-.172-.727-.268-.22-.086-.449-.172-.669-.268l-.4-.172c-.325-.143-.64-.277-.956-.43a.4.4,0,0,0-.1-.048,28.5,28.5,0,0,1-13.122-13.1,1.175,1.175,0,0,1-.1-.191c-.134-.277-.268-.564-.391-.85-.067-.172-.144-.335-.22-.507s-.143-.373-.22-.564c-.1-.277-.211-.545-.306-.822-.038-.086-.067-.171-.1-.258a28.507,28.507,0,0,1,.478-19.679c.038-.086.067-.182.1-.277.114-.268.229-.535.354-.793.076-.192.162-.383.248-.564.077-.162.163-.334.248-.5.134-.277.268-.544.421-.812a2.438,2.438,0,0,1,.124-.229,28.529,28.529,0,0,1,12.434-11.823,1.162,1.162,0,0,0,.153-.076c.305-.144.611-.277.927-.411.134-.067.277-.124.411-.182.229-.1.459-.182.688-.277l.688-.258c.143-.048.277-.1.42-.143l.975-.315c.048-.009.1-.029.153-.038a28.591,28.591,0,0,1,10.6-1.013.475.475,0,0,0,.115.009c.382.038.774.086,1.156.143.115.01.229.029.344.048q.516.072,1.032.172c.163.029.325.067.478.1q.473.087.947.2c.229.057.459.124.688.182.42.114.841.239,1.252.373.277.086.554.172.831.277.23.077.46.172.689.258s.478.182.707.277c.258.1.506.219.764.325.182.086.374.171.564.268a27.874,27.874,0,0,1,5.944,3.813l2.886-2.886a32.466,32.466,0,0,0-5.333-3.7l.01-.009c-.1-.057-.22-.1-.325-.163-.306-.171-.621-.334-.936-.487-.258-.134-.517-.258-.774-.383-.191-.1-.392-.171-.583-.258q-1.018-.445-2.064-.831c-.143-.048-.277-.1-.42-.143-.4-.144-.822-.277-1.233-.4-.114-.038-.229-.067-.344-.1a33.079,33.079,0,0,0-5.811-1.119c-.077-.009-.162-.009-.248-.019-.985-.1-1.979-.153-2.973-.153a32.173,32.173,0,0,0-9.109,1.31,1.169,1.169,0,0,1-.172.048c-.373.115-.755.239-1.119.363-.162.057-.316.1-.468.162-.277.1-.545.2-.813.306s-.506.191-.755.3c-.172.067-.334.143-.507.219-.344.144-.688.306-1.033.469-.067.028-.134.067-.2.1a32.13,32.13,0,0,0-14.212,13.533c-.048.076-.1.153-.133.229-.172.315-.335.631-.488.956-.1.182-.182.363-.277.545-.106.22-.2.449-.3.669-.133.3-.258.582-.382.879-.048.124-.1.239-.143.354-.163.411-.316.812-.459,1.223,0,.01-.009.02-.009.029a32.3,32.3,0,0,0-.067,21.217c.038.1.067.211.106.306.114.315.229.631.353.936.086.22.172.44.258.65s.162.392.248.583c.143.325.286.65.44.965.038.086.076.163.114.239A32.24,32.24,0,0,0,1073.03,79.8c.048.02.1.048.143.067.354.171.707.334,1.07.487.154.067.316.144.478.211.248.1.507.2.755.3l.831.315c.143.048.277.1.42.134.392.143.785.268,1.185.392a.142.142,0,0,1,.067.019,32.367,32.367,0,0,0,19.812-.468.762.762,0,0,1,.134-.048c.373-.134.746-.277,1.119-.42.153-.067.305-.124.468-.182.248-.115.506-.22.755-.335.268-.114.536-.239.794-.362.143-.058.277-.134.411-.2.373-.182.736-.363,1.1-.564a.567.567,0,0,1,.076-.038,32.641,32.641,0,0,0,7.426-5.543c.726-.736,1.415-1.51,2.064-2.3.009-.009.02-.009.02-.019a32.129,32.129,0,0,0,3.43-5.066c.029-.057.057-.114.086-.162.229-.42.449-.842.65-1.271a2.376,2.376,0,0,0,.106-.22c.42-.879.8-1.777,1.137-2.695.01-.02.02-.029.02-.048.114-.306.21-.612.315-.918s.191-.6.287-.908c.038-.124.086-.249.124-.373h-.02A32.374,32.374,0,0,0,1119.556,50.655Z" transform="translate(-1054.765 -4.77)"/>
    </g>
  </g>
</svg>
