<svg xmlns="http://www.w3.org/2000/svg" width="140" height="140" viewBox="0 0 140 140">
  <defs>
    <style>
      .cls-1 {
        fill: #fff5dc;
      }

      .cls-2 {
        fill: #da9c04;
      }
    </style>
  </defs>
  <g id="Our_Core_Values_Icon_" data-name="Our Core Values Icon " transform="translate(-150.001 -2349)">
    <rect id="Rectangle_881" data-name="Rectangle 881" class="cls-1" width="140" height="140" rx="15" transform="translate(150.001 2349)"/>
    <path id="Path_336" data-name="Path 336" class="cls-2" d="M58.961,5.375H19.6L0,27.926,39.143,76.852,78.286,28.187Zm-1.9,4.114.406.483L69.015,23.6,70.9,25.83H57.145l-.406-.483L45.382,11.711,43.528,9.489ZM39.143,10.648l1.033,1.246L49.94,23.609l1.855,2.222h-25.3l1.844-2.222L38.1,11.894ZM9.213,23.59,21.064,9.952l.406-.463h13.28L32.9,11.711,21.537,25.347l-.406.483H7.272ZM29.785,58.56,8.634,32.136,6.877,29.944H20.725l.348.831L32.083,57.2l3.69,8.856Zm9.358,4.877-1.256-2.994L25.96,31.818l-.783-1.873H53.1l-.782,1.873L40.389,60.444Zm9.271-4.674L42.455,66.17,46.116,57.4,57.2,30.775l.348-.831H71.6l-1.777,2.2Z" transform="translate(181 2377.625)"/>
  </g>
</svg>
