<svg xmlns="http://www.w3.org/2000/svg" width="140" height="140" viewBox="0 0 140 140">
  <defs>
    <style>
      .cls-1 {
        fill: #fff5dc;
      }

      .cls-2 {
        fill: #da9c04;
      }
    </style>
  </defs>
  <g id="Group_182" data-name="Group 182" transform="translate(-738 -2409)">
    <rect id="Rectangle_880" data-name="Rectangle 880" class="cls-1" width="140" height="140" rx="15" transform="translate(738 2409)"/>
    <g id="Group_168" data-name="Group 168" transform="translate(769 2457)">
      <path id="Path_330" data-name="Path 330" class="cls-2" d="M77.408,43.738A72.647,72.647,0,0,0,66.315,33.124,57.948,57.948,0,0,0,54.21,25.807a37.989,37.989,0,0,0-14.445-3.376h-.319c-.1,0-.2-.008-.3-.008s-.207.008-.3.008h-.327a37.985,37.985,0,0,0-14.437,3.376,58.14,58.14,0,0,0-12.1,7.317,71.288,71.288,0,0,0-11.1,10.6L0,44.815l.878,1.077.016.024.016.024A69.052,69.052,0,0,0,11.971,56.514a58.512,58.512,0,0,0,12.105,7.31A37.714,37.714,0,0,0,38.521,67.2h.319c.1,0,.2.008.3.008s.207-.008.3-.008h.327A37.709,37.709,0,0,0,54.21,63.825a58.042,58.042,0,0,0,12.1-7.31A69.847,69.847,0,0,0,77.408,45.9l.878-1.086ZM19.2,57.328l-.008-.008a58.9,58.9,0,0,1-5.012-3.472,70.642,70.642,0,0,1-9.313-8.626l-.359-.4.352-.406a71.231,71.231,0,0,1,9.321-8.635,57.462,57.462,0,0,1,5.012-3.471L21.611,30.5,20.07,33.085l-.016.039A22.347,22.347,0,0,0,20.047,56.5l.023.04,1.572,2.625Zm20.525,6.408H39.59c-.135.009-.272.009-.415.009h-.064c-.143,0-.279,0-.423-.009h-.128A18.926,18.926,0,0,1,38.544,25.9l.128-.008.031-.008h.407c.152,0,.3,0,.447.008l.16.008a18.926,18.926,0,0,1,.008,37.834Zm33.7-18.522c-.758.845-2,2.179-3.607,3.7a70.553,70.553,0,0,1-5.714,4.931,58.9,58.9,0,0,1-5.012,3.472L56.675,59.14l1.541-2.6.016-.032a22.346,22.346,0,0,0,.008-23.374l-.023-.048-1.572-2.61L59.086,32.3a58,58,0,0,1,5.02,3.479,72.9,72.9,0,0,1,9.313,8.626l.367.4Z" transform="translate(0.001 -22.423)"/>
      <path id="Path_331" data-name="Path 331" class="cls-2" d="M46.481,34.818A12.693,12.693,0,1,0,59.169,47.507,12.7,12.7,0,0,0,46.481,34.818Zm0,21.93a9.237,9.237,0,1,1,9.233-9.242A9.245,9.245,0,0,1,46.481,56.748Z" transform="translate(-7.337 -25.114)"/>
    </g>
  </g>
</svg>
